Coordinates
version=1
nRows=16
nColumns=36
inDegrees=yes

Units are S.I. units (second, meters, Newtons, ...)
If the header above contains a line with 'inDegrees', this indicates whether rotational values are in degrees (yes) or radians (no).

endheader
time	pelvis_tilt	pelvis_list	pelvis_rotation	pelvis_tx	pelvis_ty	pelvis_tz	hip_flexion_r	hip_adduction_r	hip_rotation_r	knee_angle_r	knee_angle_r_beta	ankle_angle_r	subtalar_angle_r	mtp_angle_r	hip_flexion_l	hip_adduction_l	hip_rotation_l	knee_angle_l	knee_angle_l_beta	ankle_angle_l	subtalar_angle_l	mtp_angle_l	lumbar_extension	lumbar_bending	lumbar_rotation	arm_flex_r	arm_add_r	arm_rot_r	elbow_flex_r	pro_sup_r	arm_flex_l	arm_add_l	arm_rot_l	elbow_flex_l	pro_sup_l
     30.30000000	     -3.80946140	     -1.16528996	     -5.33904625	      0.46495788	      0.89157971	      0.74368050	     40.88638949	      2.89818620	     -1.23131177	     23.99148459	      0.41873040	     12.17371728	      0.73242876	     -7.49999987	     -5.81596549	      0.88434466	     -6.37095746	     17.50135036	      0.30545619	     25.01235476	     -0.17738549	     -7.49999987	     -5.94041646	      4.11095685	     -5.45086086	      1.43888206	     -9.02582297	      4.50384227	      9.94763993	     90.23896760	     16.39814405	    -12.98540811	     15.35620108	     26.45171740	     92.08893500
     30.31666670	     -3.77074267	     -1.26021871	     -5.08872008	      0.47196000	      0.89287120	      0.74638620	     40.13460835	      3.18888524	     -1.57625227	     25.23172420	      0.44037666	     10.81858704	      0.88662045	     -7.49999987	     -5.82444861	      0.57132327	     -6.99267489	     19.35241155	      0.33776330	     24.66268087	     -0.17129141	     -7.49999987	     -5.47269004	      4.32286621	     -5.23819536	      2.04430412	     -8.94881062	      4.53655563	     10.35681236	     90.42999837	     16.09198365	    -12.69303932	     15.36807143	     26.41224545	     92.29243465
     30.33333330	     -3.47555198	     -1.32992605	     -4.96537757	      0.48029328	      0.89486597	      0.74999878	     39.01570647	      3.48255163	     -1.75834609	     26.93213284	      0.47005439	      9.35122170	      0.78100173	     -7.49999987	     -5.65816562	      0.22286255	     -7.94888177	     22.10701852	      0.38584026	     23.37212000	     -0.19138492	     -7.49999987	     -5.24881256	      4.53095783	     -4.88925644	      2.71286489	     -8.89294966	      4.61306718	     10.92196277	     90.47549932	     15.63740575	    -12.35764460	     15.39195312	     26.29554014	     92.30813830
     30.35000000	     -3.06123156	     -1.65258172	     -4.82992426	      0.48950400	      0.89637442	      0.75338421	     37.65330722	      4.06893728	     -1.68107490	     28.77123227	      0.50215273	      8.01583584	     -0.28985179	     -7.49999987	     -4.91789810	     -0.59113999	     -9.06436398	     26.42040674	      0.46112309	     21.52320188	     -0.06496067	     -7.49999987	     -5.10041773	      4.94827653	     -4.47543419	      3.38684092	     -8.97114855	      4.85690915	     11.49082116	     90.66756800	     15.16673007	    -11.89159458	     15.34513567	     26.03912962	     92.39153733
     30.36666670	     -2.75216825	     -2.26313321	     -4.74269839	      0.49863144	      0.89730818	      0.75527407	     36.26659320	      5.00816709	     -1.51074609	     30.57675883	      0.53366512	      7.15127461	     -2.12012190	     -7.49999987	     -3.56643605	     -1.91935817	    -10.27177765	     31.83408364	      0.55560957	     18.42821648	     -0.01832170	     -7.49999987	     -4.65123313	      5.69438341	     -3.93981293	      3.80272834	     -9.24528440	      5.40345042	     12.23331685	     90.97153130	     14.49807103	    -11.27390928	     15.18669334	     25.69304225	     92.46624531
     30.38333330	     -2.37143329	     -3.07002834	     -4.75685620	      0.50513030	      0.89842815	      0.75585246	     34.60774084	      6.17684906	     -1.35081341	     32.06575013	      0.55965292	      7.36794949	     -3.42545690	     -7.49999987	     -1.89212682	     -3.48441847	    -11.08827160	     37.85841712	      0.66075403	     14.36691830	     -0.34277590	     -7.49999987	     -4.40629782	      6.62218867	     -3.25522163	      4.19588836	     -9.58651194	      5.88410042	     12.74246391	     91.26246080	     13.76299297	    -10.64302617	     15.06536700	     25.35777041	     92.59161721
     30.40000000	     -2.21617544	     -3.99750060	     -4.68833411	      0.50693170	      0.89906514	      0.75630501	     32.95535602	      7.46193888	     -1.09405534	     32.89109535	      0.57405791	      7.93246653	     -4.76573123	     -7.49999987	      0.52326456	     -5.21466893	    -11.36470821	     44.26936283	      0.77264614	      9.86487138	     -0.92717665	     -7.49999987	     -3.99928723	      7.68997397	     -2.48465764	      4.38324799	    -10.08686437	      6.43723858	     13.53268698	     91.42531935	     13.02918922	     -9.95068560	     14.92086757	     25.07378787	     92.59225394
     30.41666670	     -2.69520070	     -4.62143539	     -4.61053004	      0.50521851	      0.89919327	      0.75742500	     31.95216843	      8.50912179	     -0.49541122	     33.22433006	      0.57987395	      8.48690557	     -6.36687159	     -7.49999987	      4.11888183	     -6.54939476	    -10.99511767	     50.69590572	      0.88481047	      5.80929479	     -1.83908357	     -7.49999987	     -2.89206799	      8.41598839	     -1.76453852	      4.39655692	    -10.68532516	      7.67884492	     14.81568531	     91.87679714	     12.37433373	     -9.31380655	     14.65904130	     24.40261155	     92.93440185
     30.43333330	     -3.09990113	     -5.16957060	     -4.52527040	      0.50351555	      0.90217062	      0.75837241	     30.73954801	      9.36143815	      0.00897050	     32.95251240	      0.57512984	      9.21867189	     -7.49687022	     -7.49999987	      7.76698445	     -7.59852904	    -10.21559951	     56.57498922	      0.98741984	      3.31047426	     -2.76487104	     -7.49999987	     -2.17664042	      9.06338057	     -0.92717196	      4.72380642	    -11.32444209	      8.50088392	     16.06952643	     92.07959271	     11.81741277	     -8.88880300	     14.71239511	     24.17714961	     93.38245452
     30.45000000	     -3.54231281	     -5.47253134	     -4.49778390	      0.50331339	      0.90908981	      0.75892053	     29.37149507	      9.89835518	      0.51833130	     32.11680881	      0.56054406	      9.85663489	     -8.51425685	     -7.49999987	     11.25261276	     -8.14835476	     -9.25551402	     61.35740606	      1.07088876	      2.61060028	     -3.65285531	     -7.49999987	     -1.53534441	      9.45267653	      0.04688930	      5.26588180	    -12.08057506	     10.03963480	     17.21379355	     91.47750089	     11.46547073	     -8.62293656	     15.28091933	     23.78404489	     93.93559836
     30.46666670	     -4.01713607	     -5.59281885	     -4.50382225	      0.50398367	      0.91624424	      0.75925175	     27.82677370	     10.17380558	      0.91148416	     30.87233161	      0.53882383	     10.45537205	     -9.29568334	     -7.49999987	     14.41523939	     -8.31125329	     -8.32670004	     64.88116391	      1.13238993	      3.45934566	     -4.66813683	     -7.49999987	     -0.84473566	      9.66952921	      0.91763279	      5.94432935	    -12.79842567	     11.26380411	     18.31670144	     91.02883848	     11.07789680	     -8.48286349	     15.87159825	     23.34926448	     94.85618097
     30.48333330	     -4.34584736	     -5.60995819	     -4.53182927	      0.50475778	      0.91984616	      0.75948689	     26.05138114	     10.27875963	      1.14950723	     29.54211701	      0.51560721	     11.12423920	     -9.83170553	     -7.49999987	     17.02486250	     -8.27159015	     -7.59284354	     67.31806023	      1.17492180	      5.28036218	     -5.80896965	     -7.49999987	     -0.28852438	      9.77712546	      1.60862820	      6.87660553	    -13.26636667	     11.51875440	     19.13823605	     91.06368326	     10.59446085	     -8.38110748	     16.00055381	     23.01823830	     95.08322110
     30.50000000	     -4.65703672	     -5.51984985	     -4.65104094	      0.50534157	      0.92157919	      0.75991278	     24.33504044	     10.29669518	      1.41035140	     28.33524301	      0.49454328	     11.87283331	    -10.33612237	     -7.49999987	     19.27282581	     -8.14474604	     -7.11070430	     68.95217496	      1.20344248	      7.50521967	     -7.13326450	     -7.49999987	      0.34470304	      9.75754512	      2.32682002	      7.80235074	    -13.76119703	     12.16121961	     20.11749940	     91.28159662	     10.19356204	     -8.27807846	     16.28278901	     22.46617945	     95.53382460
     30.51666670	     -4.84805910	     -5.13308849	     -4.91264984	      0.50526687	      0.92666552	      0.76094585	     22.57414909	     10.02513773	      1.81563538	     27.15775366	      0.47399222	     12.80309203	    -10.51059054	     -7.49999987	     21.08655252	     -7.76473523	     -6.94858875	     69.74965125	      1.21736107	      9.34586340	     -8.39815436	     -7.49999987	      0.59642108	      9.29190778	      3.16831544	      9.06599940	    -13.92585999	     12.24005356	     20.73697840	     91.27136739	      9.79673916	     -8.34433558	     16.35692599	     22.28860448	     95.55968117
     30.53333330	     -4.65039826	     -5.18836792	     -5.10040291	      0.50539725	      0.93371187	      0.76204259	     20.17507726	     10.13260211	      2.14198425	     25.52486064	      0.44549286	     13.49311024	    -10.64325691	     -7.49999987	     22.41033425	     -7.84932069	     -6.63615890	     70.12786687	      1.22396217	     11.20823492	     -9.44824838	     -7.49999987	      0.54662543	      9.40024859	      3.96823459	      9.97388914	    -14.81272897	     14.52839053	     22.78457275	     91.92656114	      9.69400747	     -8.23976109	     17.37187107	     21.23405093	     96.82480223
     30.55000000	     -4.38377965	     -4.93513195	     -5.40252601	      0.50542815	      0.94021488	      0.76326806	     17.56762398	      9.92135364	      2.79222582	     23.63231055	      0.41246163	     14.27835986	    -10.07852720	     -7.49999987	     23.71124413	     -7.60630050	     -6.47752568	     69.55127308	      1.21389871	     12.34910623	     -9.83925462	     -7.49999987	      0.23831809	      9.12281906	      4.77421299	     11.32215217	    -15.26019778	     15.90571844	     23.75103012	     91.43345121	      9.30624649	     -8.34161075	     18.13510091	     20.93712378	     97.70987072
